<svg width="25" height="13" viewBox="0 0 25 13" fill="none" xmlns="http://www.w3.org/2000/svg">
<path fill-rule="evenodd" clip-rule="evenodd" d="M17.6774 0.804591C17.4975 0.849535 17.3678 0.912857 17.1733 1.05052C16.8206 1.30009 16.8537 1.239 15.5712 4.00376C14.9379 5.36925 14.4135 6.49053 14.4061 6.49559C14.3986 6.50065 14.0359 5.73334 13.6 4.79042C12.8043 3.06925 12.7045 2.86805 12.5676 2.70784C11.9312 1.96308 10.6948 2.04515 10.1909 2.86552C10.1441 2.94186 9.67085 3.94416 9.13926 5.09289L8.1728 7.18142L7.49988 5.72865C6.71915 4.04335 6.62147 3.88463 6.24477 3.69049L6.15631 3.64488V2.93271C6.15631 2.307 6.15176 2.21867 6.11872 2.20498C6.098 2.19635 5.9482 2.18935 5.7858 2.18935H5.49047V2.84475V3.50023H5.38728C4.98642 3.50023 4.46102 3.83284 4.22366 4.23703C4.14621 4.36896 0.187714 12.9235 0.187714 12.959C0.187714 12.9759 4.33608 12.9846 12.3984 12.9846C20.5077 12.9846 24.609 12.9759 24.609 12.9589C24.609 12.9156 19.3626 1.58917 19.2849 1.4646C18.9597 0.943886 18.2637 0.658153 17.6774 0.804591Z" fill="#FEFEFE"/>
</svg>
