<svg width="39" height="40" viewBox="0 0 39 40" fill="none" xmlns="http://www.w3.org/2000/svg">
<path d="M38.3035 10.06L30.4478 0.996252C29.8991 0.363751 29.1028 0 28.2653 0H10.219C9.38153 0 8.58528 0.363751 8.03653 0.996252L0.180891 10.06C-0.16286 10.3138 0.0158904 10.8594 0.443391 10.8594H38.041C38.4685 10.8594 38.6478 10.3138 38.3035 10.06Z" fill="#E2081E"/>
<path d="M1.1171 40.0001H10.2984V30.062C10.2984 25.1432 14.2859 21.1557 19.2046 21.1557C21.6609 21.1557 23.8859 22.1432 25.4984 23.7619C27.1046 25.3745 28.1046 27.5932 28.1046 30.062V40.0001H37.2922V12.1125H1.1171V40.0001Z" fill="#E2081E"/>
<path d="M26.5515 30.1892C25.8584 30.0211 24.0834 29.9267 23.6947 29.4011C23.2953 28.8761 22.739 27.2061 20.0497 27.2061C17.3609 27.2061 17.0665 28.3511 17.0665 28.3511C17.0665 28.3511 12.9278 32.6154 11.5203 34.7479V39.9998H21.8247C21.8247 39.9998 21.7934 38.3298 21.2678 37.0167C21.2678 37.0167 21.8247 35.4098 22.9065 35.0836C22.9065 35.0836 23.9572 35.3461 24.6397 34.4217C24.6397 34.4217 27.0447 33.6023 26.709 31.4067C26.709 31.4073 27.234 30.3573 26.5515 30.1892ZM22.5703 30.2311C22.2028 30.2942 21.8772 30.1892 21.8453 30.0104C21.8134 29.8211 22.0865 29.6217 22.4547 29.5586C22.8222 29.4954 23.1478 29.5898 23.1797 29.7792C23.2109 29.9686 22.9384 30.1679 22.5703 30.2311Z" fill="#E2081E"/>
</svg>
