<svg width="14" height="12" viewBox="0 0 14 12" fill="none" xmlns="http://www.w3.org/2000/svg">
<path d="M11.1583 9.26158L11.1188 9.12993L11.0398 8.91928L10.9871 8.78762L10.8423 8.5243L10.6448 8.27415L10.3815 8.03717L10.0787 7.76069L9.82856 7.52371L9.59157 7.26039L9.39409 6.99708L9.20977 6.7206L9.01228 6.35196L8.89379 6.10181L8.74897 5.82533L8.56465 5.52252L8.35399 5.24604L8.20917 5.10121L8.06435 4.96956L7.86686 4.82473L7.62988 4.71941L7.32707 4.61408L7.02426 4.57458H6.70828L6.40547 4.61408L5.971 4.77207L5.54969 5.06172L5.27321 5.3382L5.10206 5.60151L4.9309 5.90432L4.70709 6.36512L4.49644 6.77326L4.25945 7.08924L3.96981 7.45788L3.11403 8.24782L3.03504 8.31365L2.83755 8.59013L2.67956 8.90611L2.5874 9.30108L2.53474 9.65656L2.52158 10.0515L2.56107 10.3148L2.67956 10.6835L2.85072 11.0258L3.03504 11.2628L3.27202 11.4998L3.588 11.7104L3.95664 11.8816L4.23312 11.9474L4.65442 11.9606L5.06256 11.8684L5.31271 11.7499L5.41804 11.6709L5.65502 11.5393L5.87884 11.4076L6.07632 11.2891L6.28697 11.1969L6.45813 11.118L6.65561 11.0653L6.86627 11.0521L7.11642 11.0916L7.30074 11.1311L7.60355 11.2759L7.97219 11.4603L8.275 11.6577L8.55148 11.8157L8.82796 11.9342L9.09127 11.9869L9.31509 12.0001L9.49941 11.9869L9.78906 11.9079L10.1577 11.7367L10.421 11.5524L10.6975 11.2759L10.895 11.0126L11.0661 10.6572L11.1715 10.3148L11.211 10.0252V9.72239L11.1978 9.55123L11.1583 9.26158Z" fill="#B5B0AD"/>
<path d="M10.1065 2.32088C10.2243 1.20727 9.68665 0.23754 8.90568 0.154927C8.12471 0.0723141 7.39611 0.908103 7.27831 2.02171C7.16051 3.13533 7.69811 4.10506 8.47909 4.18767C9.26006 4.27028 9.98866 3.43449 10.1065 2.32088Z" fill="#B5B0AD"/>
<path d="M5.24939 4.18235C6.03036 4.09974 6.56797 3.13001 6.45017 2.0164C6.33237 0.902787 5.60377 0.0669979 4.8228 0.149611C4.04183 0.232223 3.50422 1.20195 3.62202 2.31556C3.73982 3.42917 4.46842 4.26496 5.24939 4.18235Z" fill="#B5B0AD"/>
<path d="M12.7159 5.62151C12.9578 4.5356 12.5325 3.5169 11.7659 3.34618C10.9994 3.17546 10.182 3.91736 9.9401 5.00327C9.69824 6.08918 10.1236 7.10788 10.8901 7.2786C11.6566 7.44933 12.4741 6.70742 12.7159 5.62151Z" fill="#B5B0AD"/>
<path d="M2.84068 7.27821C3.6072 7.10749 4.03253 6.08879 3.79067 5.00288C3.54881 3.91697 2.73136 3.17506 1.96483 3.34579C1.19831 3.51651 0.772984 4.53521 1.01484 5.62112C1.2567 6.70703 2.07415 7.44893 2.84068 7.27821Z" fill="#B5B0AD"/>
</svg>
