<svg width="13" height="12" viewBox="0 0 13 12" fill="none" xmlns="http://www.w3.org/2000/svg">
<path d="M9.94371 8.22179L9.9437 8.2218L9.94503 8.223L10.1925 8.44575L10.364 8.66295L10.4915 8.89468L10.5374 9.00958L10.6125 9.20983L10.644 9.31472L10.6798 9.57773L10.6917 9.73199V10.0082L10.6573 10.2608L10.5635 10.5657L10.4111 10.8822L10.2389 11.1117L9.99047 11.3602L9.76317 11.5193L9.43368 11.6723L9.18798 11.7393L9.04428 11.7495L8.85404 11.7383L8.63327 11.6942L8.39386 11.5916L8.13617 11.4443L7.83951 11.2509L7.82754 11.243L7.81475 11.2367L7.44611 11.0523L7.44613 11.0523L7.44217 11.0504L7.13936 10.9056L7.11273 10.8929L7.08388 10.8867L6.89956 10.8472L6.89964 10.8468L6.88616 10.8447L6.63601 10.8052L6.60886 10.8009L6.58143 10.8026L6.37078 10.8158L6.34597 10.8173L6.32196 10.8237L6.12447 10.8764L6.10367 10.8819L6.08412 10.891L5.91524 10.9689L5.70688 11.0601L5.6922 11.0665L5.67846 11.0747L5.48193 11.1926L5.26166 11.3222L5.02738 11.4524L5.01246 11.4607L4.99879 11.4709L4.91365 11.5348L4.71129 11.6306L4.36117 11.7097L3.99708 11.6983L3.76982 11.6442L3.44146 11.4917L3.16205 11.3055L2.95358 11.097L2.79401 10.8918L2.64248 10.5888L2.53605 10.2577L2.50296 10.037L2.51489 9.67911L2.56396 9.34788L2.64709 8.99158L2.78315 8.71948L2.95054 8.48513L3.00484 8.43988L3.00504 8.44013L3.01436 8.43152L3.87013 7.64158L3.88481 7.62804L3.89714 7.61234L4.18679 7.2437L4.18684 7.24373L4.19021 7.23924L4.42719 6.92326L4.43975 6.90652L4.44935 6.88792L4.66 6.47979L4.66007 6.47982L4.66272 6.47435L4.88314 6.02056L5.04665 5.73127L5.19929 5.49643L5.441 5.25472L5.81713 4.99613L6.19582 4.85843L6.45527 4.82458H6.73878L6.99999 4.85866L7.26864 4.9521L7.47149 5.04225L7.63667 5.16339L7.76736 5.2822L7.89609 5.41092L8.08864 5.66365L8.262 5.94845L8.40076 6.21336L8.5171 6.45898L8.51683 6.45911L8.52267 6.47001L8.72015 6.83865L8.72584 6.84926L8.73251 6.85927L8.91683 7.13575L8.91651 7.13597L8.92484 7.14708L9.12233 7.41039L9.12903 7.41933L9.13651 7.42764L9.37349 7.69095L9.38015 7.69835L9.38738 7.7052L9.63753 7.94218L9.6375 7.94221L9.6409 7.94531L9.94371 8.22179Z" stroke="#DAD6D3" stroke-width="0.5"/>
<path d="M8.61013 0.403552C8.89743 0.433943 9.16524 0.629843 9.3552 0.972502C9.54472 1.31435 9.64274 1.78263 9.58859 2.29458C9.53443 2.80653 9.34061 3.24394 9.08376 3.53857C8.82631 3.8339 8.52344 3.96944 8.23614 3.93904C7.94884 3.90865 7.68103 3.71275 7.49107 3.37009C7.30155 3.02825 7.20353 2.55997 7.25768 2.04801C7.31184 1.53606 7.50566 1.09866 7.76251 0.804024C8.01996 0.508694 8.32283 0.373161 8.61013 0.403552Z" stroke="#DAD6D3" stroke-width="0.5"/>
<path d="M5.9323 2.0427C5.98646 2.55465 5.88844 3.02293 5.69892 3.36478C5.50895 3.70744 5.24115 3.90334 4.95385 3.93373C4.66655 3.96412 4.36368 3.82858 4.10623 3.53325C3.84938 3.23862 3.65556 2.80122 3.6014 2.28926C3.54725 1.77731 3.64527 1.30903 3.83478 0.967185C4.02475 0.624526 4.29256 0.428627 4.57986 0.398236C4.86716 0.367845 5.17002 0.503377 5.42748 0.798707C5.68432 1.09334 5.87815 1.53075 5.9323 2.0427Z" stroke="#DAD6D3" stroke-width="0.5"/>
<path d="M11.4423 3.5902C11.725 3.65317 11.969 3.87752 12.1191 4.23697C12.2689 4.59569 12.3137 5.06857 12.2027 5.56716C12.0916 6.06575 11.8503 6.47492 11.5625 6.73617C11.274 6.99795 10.9579 7.09754 10.6752 7.03458C10.3925 6.97161 10.1485 6.74726 9.9984 6.38781C9.84863 6.0291 9.80382 5.55621 9.91487 5.05762C10.0259 4.55903 10.2672 4.14986 10.555 3.88862C10.8435 3.62683 11.1596 3.52724 11.4423 3.5902Z" stroke="#DAD6D3" stroke-width="0.5"/>
<path d="M3.2774 5.05723C3.38845 5.55582 3.34364 6.0287 3.19387 6.38742C3.04379 6.74687 2.79979 6.97122 2.51709 7.03418C2.23438 7.09715 1.91823 6.99756 1.62979 6.73577C1.34194 6.47453 1.10067 6.06536 0.989624 5.56677C0.878577 5.06818 0.923388 4.59529 1.07316 4.23658C1.22323 3.87713 1.46724 3.65278 1.74994 3.58981C2.03265 3.52685 2.3488 3.62644 2.63724 3.88822C2.92509 4.14947 3.16636 4.55864 3.2774 5.05723Z" stroke="#DAD6D3" stroke-width="0.5"/>
</svg>
