<svg width="7" height="13" viewBox="0 0 7 13" fill="none" xmlns="http://www.w3.org/2000/svg">
<path d="M4.32065 12.6427V7.05802H6.19993C6.29423 6.33002 6.38749 5.61533 6.48284 4.879H4.3348C4.3348 4.2966 4.32904 3.73513 4.33952 3.17301C4.34888 3.0565 4.38471 2.94349 4.44429 2.84268C4.51836 2.71874 4.62517 2.61742 4.75316 2.54941C4.88115 2.48141 5.02543 2.44945 5.17045 2.45699C5.56181 2.43775 5.95631 2.44289 6.34663 2.43821C6.41054 2.43821 6.47498 2.43821 6.541 2.43821V0.492267C5.84331 0.410563 5.13965 0.391491 4.43853 0.435138C3.90192 0.474256 3.39088 0.678204 2.9763 1.01862C2.69126 1.26361 2.46237 1.56641 2.30504 1.90653C2.14771 2.24664 2.06558 2.6162 2.06418 2.99045C2.03589 3.56245 2.05003 4.13435 2.04584 4.70635C2.04584 4.76095 2.04584 4.81557 2.04584 4.88941H0.168152V7.06717H2.03693V12.6432" fill="#F8F5F3"/>
</svg>
