<svg width="8" height="14" viewBox="0 0 8 14" fill="none" xmlns="http://www.w3.org/2000/svg">
<g clip-path="url(#clip0_113_1462)">
<path d="M5.32065 13.1427V7.55802H7.19993C7.29423 6.83002 7.38749 6.11533 7.48284 5.379H5.3348C5.3348 4.7966 5.32904 4.23513 5.33952 3.67301C5.34888 3.5565 5.38471 3.44349 5.44429 3.34268C5.51836 3.21874 5.62517 3.11742 5.75316 3.04941C5.88115 2.98141 6.02543 2.94945 6.17045 2.95699C6.56181 2.93775 6.95631 2.94289 7.34663 2.93821C7.41054 2.93821 7.47498 2.93821 7.541 2.93821V0.992267C6.84331 0.910563 6.13965 0.891491 5.43853 0.935138C4.90192 0.974256 4.39088 1.1782 3.9763 1.51862C3.69126 1.76361 3.46237 2.06641 3.30504 2.40653C3.14771 2.74664 3.06558 3.1162 3.06418 3.49045C3.03589 4.06245 3.05003 4.63435 3.04584 5.20635C3.04584 5.26095 3.04584 5.31557 3.04584 5.38941H1.16815V7.56717H3.03693V13.1432" fill="#867D77"/>
</g>
<defs>
<clipPath id="clip0_113_1462">
<rect width="7.33472" height="13" fill="white" transform="translate(0.665283 0.5)"/>
</clipPath>
</defs>
</svg>
