<svg width="14" height="13" viewBox="0 0 14 13" fill="none" xmlns="http://www.w3.org/2000/svg">
<path d="M0.179504 9.39687V3.90009C0.187145 3.82371 0.194235 3.74714 0.202421 3.6713C0.242647 3.28968 0.347063 2.91761 0.511314 2.57025C0.858249 1.82082 1.45608 1.2139 2.20309 0.852682C2.57336 0.669209 2.97403 0.553563 3.38571 0.511759L3.6242 0.489014H9.14707C9.16072 0.492081 9.17458 0.494365 9.18855 0.495626C9.43517 0.507829 9.67977 0.54611 9.9182 0.609886C10.6753 0.813227 11.3451 1.25561 11.8266 1.87016C12.308 2.48471 12.5749 3.23808 12.5869 4.01646C12.5994 5.76385 12.5912 7.51143 12.5901 9.25885C12.5889 9.60698 12.5352 9.95267 12.4308 10.285C12.2025 11.0137 11.746 11.6514 11.1277 12.105C10.5094 12.5585 9.76146 12.8045 8.99263 12.8071C7.267 12.8071 5.54122 12.8071 3.81521 12.8071C3.70061 12.8071 3.58545 12.8018 3.47084 12.7932C3.06443 12.7614 2.66696 12.6581 2.29697 12.4882C1.58183 12.1671 0.992249 11.6222 0.618277 10.9373C0.39228 10.531 0.250857 10.0839 0.202421 9.62225C0.193689 9.54425 0.187145 9.47162 0.179504 9.39687ZM6.38509 1.43429C5.53592 1.43429 4.68657 1.43429 3.83704 1.43429C3.72789 1.43429 3.61875 1.43854 3.5096 1.44883C3.13999 1.47839 2.7821 1.59179 2.46342 1.77997C2.05158 2.00622 1.71001 2.3401 1.47576 2.74534C1.2415 3.15058 1.12349 3.61154 1.13454 4.07862C1.12472 5.79029 1.13182 7.50222 1.13182 9.21389C1.13139 9.40884 1.15188 9.60319 1.19294 9.79391C1.31891 10.3754 1.64121 10.8969 2.10648 11.2718C2.57175 11.6467 3.15207 11.8527 3.75136 11.8555C5.48899 11.862 7.22607 11.8555 8.9637 11.8555C9.12 11.8555 9.27603 11.8429 9.43031 11.818C9.91356 11.7443 10.3648 11.5328 10.7292 11.2091C11.0186 10.9623 11.2497 10.6552 11.4059 10.3096C11.5621 9.96405 11.6396 9.58862 11.6329 9.20988C11.6358 7.50006 11.6358 5.78996 11.6329 4.07941C11.6333 3.97283 11.6276 3.86612 11.616 3.76017C11.5432 3.12456 11.2387 2.53732 10.7597 2.10925C10.2808 1.68118 9.66061 1.44184 9.01609 1.4364C8.14073 1.42882 7.26264 1.43693 6.38455 1.43693L6.38509 1.43429Z" fill="#F8F5F3"/>
<path d="M6.38897 3.33179C7.04969 3.33264 7.69541 3.52802 8.24437 3.89302C8.79332 4.25803 9.22091 4.77643 9.47315 5.38261C9.72534 5.98878 9.79082 6.65541 9.66132 7.29853C9.53182 7.94165 9.2131 8.53212 8.74552 8.99546C8.27787 9.45886 7.68236 9.77438 7.03419 9.90189C6.38607 10.0294 5.71438 9.96331 5.10406 9.71198C4.49375 9.46065 3.97221 9.03528 3.60536 8.48976C3.23851 7.9443 3.04282 7.30319 3.04303 6.64739C3.04549 5.76783 3.39896 4.92519 4.02607 4.30377C4.65318 3.68236 5.5028 3.33278 6.38897 3.33179ZM6.38897 4.27917C5.91674 4.27885 5.45504 4.41759 5.06227 4.67775C4.66949 4.93792 4.36328 5.30779 4.18238 5.7407C4.00148 6.17365 3.954 6.65026 4.04597 7.10998C4.13793 7.56969 4.3652 7.99192 4.69902 8.32342C5.03285 8.65492 5.45821 8.88074 5.92138 8.97223C6.38449 9.06371 6.86452 9.0167 7.30079 8.8373C7.73705 8.65795 8.10995 8.35424 8.37223 7.96451C8.63451 7.57478 8.7745 7.11658 8.77439 6.64788C8.77515 6.33637 8.71386 6.02789 8.59402 5.73994C8.47418 5.45199 8.29812 5.19016 8.07601 4.97001C7.85389 4.74985 7.59008 4.57548 7.2998 4.45691C7.00952 4.33834 6.69851 4.27796 6.3846 4.27917H6.38897Z" fill="#F8F5F3"/>
<path d="M9.96724 2.38428C10.1092 2.38472 10.2478 2.42696 10.3655 2.50568C10.4832 2.5844 10.5747 2.6961 10.6284 2.8265C10.6821 2.9569 10.6955 3.1003 10.667 3.2383C10.6386 3.37631 10.5694 3.50275 10.4684 3.60171C10.3674 3.70067 10.2391 3.76752 10.0997 3.79399C9.96026 3.82046 9.81607 3.80532 9.68543 3.75035C9.55472 3.69538 9.44345 3.60317 9.36568 3.48534C9.28791 3.3675 9.24714 3.22947 9.24851 3.0886C9.25042 2.90083 9.32704 2.72144 9.46167 2.58952C9.59631 2.4576 9.77809 2.3837 9.96724 2.38428Z" fill="#F8F5F3"/>
</svg>
