<svg width="14" height="14" viewBox="0 0 14 14" fill="none" xmlns="http://www.w3.org/2000/svg">
<g clip-path="url(#clip0_113_1458)">
<path d="M0.179535 9.89687V4.40009C0.187175 4.32371 0.194265 4.24714 0.202452 4.1713C0.242678 3.78968 0.347093 3.41761 0.511344 3.07025C0.858279 2.32082 1.45611 1.7139 2.20313 1.35268C2.57339 1.16921 2.97406 1.05356 3.38575 1.01176L3.62423 0.989014H9.1471C9.16075 0.992081 9.17461 0.994365 9.18858 0.995626C9.4352 1.00783 9.6798 1.04611 9.91823 1.10989C10.6753 1.31323 11.3452 1.75561 11.8266 2.37016C12.308 2.98471 12.5749 3.73808 12.5869 4.51646C12.5994 6.26385 12.5913 8.01143 12.5902 9.75885C12.5889 10.107 12.5352 10.4527 12.4308 10.785C12.2025 11.5137 11.7461 12.1514 11.1277 12.605C10.5094 13.0585 9.76149 13.3045 8.99266 13.3071C7.26703 13.3071 5.54125 13.3071 3.81524 13.3071C3.70064 13.3071 3.58548 13.3018 3.47087 13.2932C3.06446 13.2614 2.66699 13.1581 2.297 12.9882C1.58186 12.6671 0.99228 12.1222 0.618307 11.4373C0.39231 11.031 0.250887 10.5839 0.202452 10.1223C0.19372 10.0443 0.187175 9.97162 0.179535 9.89687ZM6.38512 1.93429C5.53595 1.93429 4.6866 1.93429 3.83707 1.93429C3.72792 1.93429 3.61878 1.93854 3.50963 1.94883C3.14002 1.97839 2.78213 2.09179 2.46345 2.27997C2.05161 2.50622 1.71005 2.8401 1.47579 3.24534C1.24153 3.65058 1.12352 4.11154 1.13458 4.57862C1.12475 6.29029 1.13185 8.00222 1.13185 9.71389C1.13142 9.90884 1.15191 10.1032 1.19297 10.2939C1.31894 10.8754 1.64124 11.3969 2.10651 11.7718C2.57178 12.1467 3.1521 12.3527 3.75139 12.3555C5.48902 12.362 7.2261 12.3555 8.96373 12.3555C9.12003 12.3555 9.27606 12.3429 9.43034 12.318C9.91359 12.2443 10.3649 12.0328 10.7292 11.7091C11.0187 11.4623 11.2498 11.1552 11.406 10.8096C11.5622 10.464 11.6397 10.0886 11.6329 9.70988C11.6358 8.00006 11.6358 6.28996 11.6329 4.57941C11.6333 4.47283 11.6276 4.36612 11.616 4.26017C11.5433 3.62456 11.2387 3.03732 10.7598 2.60925C10.2808 2.18118 9.66064 1.94184 9.01612 1.9364C8.14076 1.92882 7.26267 1.93693 6.38458 1.93693L6.38512 1.93429Z" fill="#867D77"/>
<path d="M6.389 3.83179C7.04972 3.83264 7.69544 4.02802 8.2444 4.39302C8.79335 4.75803 9.22094 5.27643 9.47318 5.88261C9.72537 6.48878 9.79085 7.15541 9.66135 7.79853C9.53185 8.44165 9.21314 9.03212 8.74555 9.49546C8.2779 9.95886 7.6824 10.2744 7.03422 10.4019C6.3861 10.5294 5.71441 10.4633 5.10409 10.212C4.49378 9.96065 3.97224 9.53528 3.60539 8.98976C3.23854 8.4443 3.04285 7.80319 3.04306 7.14739C3.04552 6.26783 3.39899 5.42519 4.0261 4.80377C4.65321 4.18236 5.50283 3.83278 6.389 3.83179ZM6.389 4.77917C5.91677 4.77885 5.45508 4.91759 5.0623 5.17775C4.66952 5.43792 4.36332 5.80779 4.18241 6.2407C4.00151 6.67365 3.95403 7.15026 4.046 7.60998C4.13796 8.06969 4.36523 8.49192 4.69905 8.82342C5.03288 9.15492 5.45824 9.38074 5.92141 9.47223C6.38452 9.56371 6.86455 9.5167 7.30082 9.3373C7.73708 9.15795 8.10998 8.85424 8.37226 8.46451C8.63454 8.07478 8.77453 7.61658 8.77442 7.14788C8.77518 6.83637 8.71389 6.52789 8.59405 6.23994C8.47421 5.95199 8.29815 5.69016 8.07604 5.47001C7.85392 5.24985 7.59011 5.07548 7.29983 4.95691C7.00956 4.83834 6.69854 4.77796 6.38463 4.77917H6.389Z" fill="#867D77"/>
<path d="M9.96727 2.88428C10.1092 2.88472 10.2478 2.92696 10.3655 3.00568C10.4832 3.0844 10.5747 3.1961 10.6284 3.3265C10.6821 3.4569 10.6956 3.6003 10.6671 3.7383C10.6386 3.87631 10.5694 4.00275 10.4685 4.10171C10.3675 4.20067 10.2391 4.26752 10.0997 4.29399C9.96029 4.32046 9.81611 4.30532 9.68546 4.25035C9.55475 4.19538 9.44348 4.10317 9.36571 3.98534C9.28794 3.8675 9.24717 3.72947 9.24854 3.5886C9.25045 3.40083 9.32707 3.22144 9.4617 3.08952C9.59634 2.9576 9.77812 2.8837 9.96727 2.88428Z" fill="#867D77"/>
</g>
<defs>
<clipPath id="clip0_113_1458">
<rect width="13.0977" height="13" fill="white" transform="translate(0 0.5)"/>
</clipPath>
</defs>
</svg>
