<svg width="16" height="16" viewBox="0 0 16 16" fill="none" xmlns="http://www.w3.org/2000/svg">
<path d="M9.86471 9.6982C9.86471 9.20313 9.66805 8.72834 9.31798 8.37827C8.96792 8.02821 8.49313 7.83154 7.99806 7.83154C7.50299 7.83154 7.0282 8.02821 6.67814 8.37827C6.32807 8.72834 6.13141 9.20313 6.13141 9.6982C5.89224 9.80501 5.67823 9.96096 5.50329 10.1559C5.32835 10.3509 5.1964 10.5804 5.11602 10.8297C5.03563 11.079 5.00861 11.3424 5.03671 11.6029C5.06482 11.8633 5.14741 12.1149 5.27913 12.3413C5.41085 12.5677 5.58874 12.7638 5.80124 12.917C6.01374 13.0701 6.25609 13.1768 6.51254 13.2302C6.76898 13.2835 7.03378 13.2823 7.28972 13.2265C7.54566 13.1708 7.787 13.0618 7.99806 12.9067C8.20912 13.0618 8.45046 13.1708 8.7064 13.2265C8.96234 13.2823 9.22713 13.2835 9.48358 13.2302C9.74003 13.1768 9.98238 13.0701 10.1949 12.917C10.4074 12.7638 10.5853 12.5677 10.717 12.3413C10.8487 12.1149 10.9313 11.8633 10.9594 11.6029C10.9875 11.3424 10.9605 11.079 10.8801 10.8297C10.7997 10.5804 10.6678 10.3509 10.4928 10.1559C10.3179 9.96096 10.1039 9.80501 9.86471 9.6982ZM9.09805 12.7334C8.7567 12.7336 8.42842 12.6022 8.18152 12.3664C8.13199 12.3195 8.06632 12.2933 7.99806 12.2933C7.9298 12.2933 7.86413 12.3195 7.81459 12.3664C7.66944 12.5049 7.49493 12.6088 7.30406 12.6704C7.11319 12.732 6.91087 12.7497 6.71218 12.7223C6.5135 12.6949 6.32355 12.623 6.1565 12.512C5.98945 12.401 5.8496 12.2537 5.74736 12.0812C5.64512 11.9086 5.58312 11.7152 5.56599 11.5154C5.54887 11.3156 5.57704 11.1144 5.64843 10.927C5.71981 10.7395 5.83256 10.5706 5.97829 10.4328C6.12401 10.295 6.29895 10.1918 6.49007 10.131C6.54866 10.1122 6.59894 10.0737 6.63238 10.022C6.66582 9.97034 6.68036 9.90869 6.67354 9.84753C6.65197 9.66077 6.67015 9.47156 6.72687 9.29232C6.78359 9.11308 6.87757 8.94786 7.00265 8.80751C7.12773 8.66716 7.28108 8.55484 7.45263 8.47794C7.62418 8.40103 7.81006 8.36127 7.99806 8.36127C8.18606 8.36127 8.37194 8.40103 8.54349 8.47794C8.71504 8.55484 8.86838 8.66716 8.99346 8.80751C9.11855 8.94786 9.21253 9.11308 9.26925 9.29232C9.32597 9.47156 9.34415 9.66077 9.32258 9.84753C9.31576 9.90869 9.3303 9.97034 9.36374 10.022C9.39717 10.0737 9.44745 10.1122 9.50605 10.131C9.8084 10.2284 10.066 10.4306 10.2325 10.7011C10.3991 10.9717 10.4635 11.2927 10.4143 11.6066C10.3651 11.9204 10.2055 12.2064 9.96418 12.4129C9.72286 12.6195 9.41571 12.7332 9.09805 12.7334Z" fill="#333333"/>
<path d="M6.39807 7.86676C7.1082 7.86676 7.66473 7.13476 7.66473 6.2001C7.66473 5.26544 7.1082 4.53345 6.39807 4.53345C5.68794 4.53345 5.13141 5.26544 5.13141 6.2001C5.13141 7.13476 5.68794 7.86676 6.39807 7.86676ZM6.39807 5.06678C6.7954 5.06678 7.1314 5.58571 7.1314 6.2001C7.1314 6.8145 6.7954 7.33343 6.39807 7.33343C6.00074 7.33343 5.66474 6.8145 5.66474 6.2001C5.66474 5.58571 6.00074 5.06678 6.39807 5.06678Z" fill="#333333"/>
<path d="M4.19806 7.1333C3.48793 7.1333 2.9314 7.86663 2.9314 8.79996C2.9314 9.73328 3.48793 10.4666 4.19806 10.4666C4.90818 10.4666 5.46471 9.73462 5.46471 8.79996C5.46471 7.8653 4.90818 7.1333 4.19806 7.1333ZM4.19806 9.93328C3.80072 9.93328 3.46473 9.41329 3.46473 8.79996C3.46473 8.18663 3.80072 7.66663 4.19806 7.66663C4.59539 7.66663 4.93138 8.18663 4.93138 8.79996C4.93138 9.41329 4.59539 9.93328 4.19806 9.93328Z" fill="#333333"/>
<path d="M9.59802 7.86676C10.3081 7.86676 10.8647 7.13476 10.8647 6.2001C10.8647 5.26544 10.3081 4.53345 9.59802 4.53345C8.88789 4.53345 8.33136 5.26544 8.33136 6.2001C8.33136 7.13476 8.88789 7.86676 9.59802 7.86676ZM9.59802 5.06678C9.99535 5.06678 10.3313 5.58571 10.3313 6.2001C10.3313 6.8145 9.99535 7.33343 9.59802 7.33343C9.20069 7.33343 8.86469 6.8145 8.86469 6.2001C8.86469 5.58571 9.20069 5.06678 9.59802 5.06678Z" fill="#333333"/>
<path d="M11.798 10.4666C12.5082 10.4666 13.0647 9.73462 13.0647 8.79996C13.0647 7.8653 12.5082 7.1333 11.798 7.1333C11.0879 7.1333 10.5314 7.86663 10.5314 8.79996C10.5314 9.73328 11.0879 10.4666 11.798 10.4666ZM11.798 7.66663C12.1954 7.66663 12.5314 8.18663 12.5314 8.79996C12.5314 9.41329 12.1954 9.93328 11.798 9.93328C11.4007 9.93328 11.0647 9.41329 11.0647 8.79996C11.0647 8.18663 11.4007 7.66663 11.798 7.66663Z" fill="#333333"/>
<path d="M15.5586 4.13341L8.12687 0.0331677C8.08743 0.0114108 8.04312 0 7.99807 0C7.95303 0 7.90871 0.0114108 7.86927 0.0331677L0.437853 4.13341C0.240956 4.24264 0.0954183 4.4255 0.0331575 4.64189C-0.0291032 4.85828 -0.00300376 5.09053 0.105732 5.2877C0.214468 5.48487 0.396963 5.63087 0.613193 5.69368C0.829423 5.75648 1.06174 5.73097 1.25918 5.62273L1.33145 5.583V14.4C1.11928 14.4 0.915794 14.4843 0.765766 14.6343C0.615738 14.7844 0.531453 14.9878 0.531453 15.2C0.531453 15.4122 0.615738 15.6157 0.765766 15.7657C0.915794 15.9157 1.11928 16 1.33145 16H14.6647C14.8769 16 15.0803 15.9157 15.2304 15.7657C15.3804 15.6157 15.4647 15.4122 15.4647 15.2C15.4647 14.9878 15.3804 14.7844 15.2304 14.6343C15.0803 14.4843 14.8769 14.4 14.6647 14.4V5.583L14.737 5.62273C14.9345 5.73168 15.1671 5.75772 15.3838 5.6951C15.6005 5.63249 15.7835 5.48636 15.8924 5.28887C16.0014 5.09137 16.0274 4.85868 15.9648 4.64199C15.9022 4.4253 15.7561 4.24236 15.5586 4.13341ZM14.9314 15.2C14.9314 15.2707 14.9033 15.3386 14.8533 15.3886C14.8032 15.4386 14.7354 15.4667 14.6647 15.4667H1.33145C1.26072 15.4667 1.1929 15.4386 1.14289 15.3886C1.09288 15.3386 1.06478 15.2707 1.06478 15.2C1.06478 15.1293 1.09288 15.0615 1.14289 15.0114C1.1929 14.9614 1.26072 14.9333 1.33145 14.9333H14.6647C14.7354 14.9333 14.8032 14.9614 14.8533 15.0114C14.9033 15.0615 14.9314 15.1293 14.9314 15.2ZM14.1314 14.4H1.86478V5.2886L7.99807 1.90489L14.1314 5.2886V14.4ZM15.309 5.151C15.2617 5.17958 15.2076 5.19506 15.1524 5.19585C15.0971 5.19665 15.0427 5.18274 14.9946 5.15554L8.12687 1.36649C8.08743 1.34474 8.04312 1.33332 7.99807 1.33332C7.95303 1.33332 7.90871 1.34474 7.86927 1.36649L1.00158 5.15554C0.953324 5.18223 0.898934 5.19586 0.843791 5.19508C0.788648 5.19431 0.734662 5.17915 0.687174 5.15111C0.639687 5.12307 0.600341 5.08312 0.573029 5.03521C0.545718 4.9873 0.531386 4.93309 0.531453 4.87794C0.531429 4.82126 0.546638 4.76561 0.575489 4.71682C0.60434 4.66803 0.645772 4.62789 0.695451 4.60061L7.99807 0.571564L15.301 4.60061C15.3506 4.62795 15.3919 4.66811 15.4207 4.71689C15.4495 4.76567 15.4647 4.82129 15.4647 4.87794C15.4653 4.93318 15.4512 4.98759 15.4238 5.03558C15.3965 5.08357 15.3568 5.12341 15.309 5.151Z" fill="#333333"/>
</svg>
