<svg width="23" height="19" viewBox="0 0 23 19" fill="none" xmlns="http://www.w3.org/2000/svg">
<path d="M1.39823 3.00001C1.17731 3.00001 0.99823 3.1791 0.99823 3.40001C0.99823 3.62093 1.17731 3.80001 1.39823 3.80001H3.87323L5.97947 13.75C6.03057 13.9958 6.19477 14.2026 6.39823 14.2H16.3982C16.6096 14.203 16.8039 14.0114 16.8039 13.8C16.8039 13.5887 16.6096 13.397 16.3982 13.4H6.72323L6.38573 11.8H17.1982C17.3773 11.798 17.5466 11.6623 17.5857 11.4875L18.9857 5.48753C19.0378 5.25538 18.8361 5.00173 18.5982 5.00003H4.94823L4.59199 3.31251C4.55235 3.13572 4.37941 2.99847 4.19823 3.00001H1.39823ZM5.11699 5.80003H8.66073L9.02947 8.00001H5.58573L5.11699 5.80003ZM9.46699 5.80003H13.7295L13.3607 8.00001H9.83573L9.46699 5.80003ZM14.5357 5.80003H18.0982L17.5857 8.00001H14.167L14.5357 5.80003ZM5.75447 8.80001H9.16073L9.52947 11H6.21699L5.75447 8.80001ZM9.97323 8.80001H13.2232L12.8607 11H10.3357L9.97323 8.80001ZM14.0357 8.80001H17.3982L16.8795 11H13.667L14.0357 8.80001ZM8.59823 15.4C7.60887 15.4 6.79823 16.2106 6.79823 17.2C6.79823 18.1894 7.60887 19 8.59823 19C9.58761 19 10.3982 18.1894 10.3982 17.2C10.3982 16.2106 9.58761 15.4 8.59823 15.4ZM14.1982 15.4C13.2089 15.4 12.3982 16.2106 12.3982 17.2C12.3982 18.1894 13.2089 19 14.1982 19C15.1876 19 15.9982 18.1894 15.9982 17.2C15.9982 16.2106 15.1876 15.4 14.1982 15.4ZM8.59823 16.2C9.15525 16.2 9.59823 16.643 9.59823 17.2C9.59823 17.757 9.15525 18.2 8.59823 18.2C8.04123 18.2 7.59823 17.757 7.59823 17.2C7.59823 16.643 8.04123 16.2 8.59823 16.2ZM14.1982 16.2C14.7552 16.2 15.1982 16.643 15.1982 17.2C15.1982 17.757 14.7552 18.2 14.1982 18.2C13.6412 18.2 13.1982 17.757 13.1982 17.2C13.1982 16.643 13.6412 16.2 14.1982 16.2Z" fill="#333333"/>
<ellipse cx="19.2839" cy="4.14293" rx="3.42857" ry="3.42857" fill="#E2081E"/>
</svg>
