<svg width="54" height="60" viewBox="0 0 54 60" fill="none" xmlns="http://www.w3.org/2000/svg">
<path d="M53.1132 25.3641C53.1132 23.8571 52.4423 22.5182 51.3969 21.5922C51.7205 20.925 51.9181 20.1841 51.9181 19.3922C51.9181 17.4724 50.838 15.8224 49.264 14.9672C49.4225 14.4754 49.5301 13.963 49.5301 13.4204C49.5301 10.7124 47.4002 8.52203 44.7261 8.38638C44.5904 5.71453 42.4008 3.5831 39.6935 3.5831C38.9002 3.5831 38.1615 3.78143 37.4935 4.10656C36.5675 3.06038 35.2287 2.388 33.7224 2.388C32.5996 2.388 31.5741 2.76474 30.7358 3.3833C30.0863 2.90334 29.3217 2.58485 28.4864 2.46246C27.6032 0.992357 26.0077 0 24.1675 0C22.6598 0 21.3224 0.672385 20.3964 1.71782C19.7284 1.39343 18.9882 1.1951 18.1949 1.1951C15.9183 1.1951 14.0132 2.71092 13.3799 4.78116C11.0531 4.79885 9.11627 6.39355 8.54562 8.5471C6.79462 9.01084 5.427 10.3799 4.96326 12.1302C2.79718 12.7031 1.19363 14.6568 1.19363 17.0043C1.19363 17.7961 1.39122 18.537 1.71635 19.2042C0.67091 20.1295 0 21.4691 0 22.9761C0 24.0975 0.376005 25.1223 0.993832 25.9627C0.376005 26.8003 0 27.8265 0 28.9487C0 30.7771 0.980561 32.3659 2.43518 33.255C2.42044 33.4121 2.38874 33.5647 2.38874 33.7261C2.38874 36.0714 3.99155 38.0266 6.15836 38.5972C6.72827 40.7633 8.68423 42.3676 11.028 42.3676C12.8579 42.3676 14.4467 41.387 15.3351 39.9309C15.4936 39.9464 15.6462 39.9789 15.8062 39.9789C16.1328 39.9789 16.4484 39.9361 16.7565 39.8779C18.6483 41.4151 20.7945 40.9882 21.4566 43.4094C24.3223 53.863 19.7918 60 19.7918 60H30.5021C30.5021 60 25.3958 47.8484 29.5576 45.0734C30.6532 44.3449 31.7842 43.2096 32.8252 41.9827C33.6576 43.6239 35.3407 44.7563 37.3063 44.7563C39.1376 44.7563 40.725 43.7758 41.6134 42.3197C41.7704 42.3352 41.9245 42.3676 42.0845 42.3676C44.878 42.3676 47.1429 40.102 47.1429 37.31C47.1429 36.9244 47.0912 36.5521 47.0087 36.1923C49.1467 35.6017 50.7252 33.6635 50.7252 31.3374C50.7252 30.794 50.6183 30.2809 50.4605 29.7914C52.0339 28.931 53.1132 27.2817 53.1132 25.3641ZM20.8454 39.5793C20.0926 39.3596 19.4313 39.145 18.8481 38.9364C19.5102 38.4313 20.0521 37.7752 20.4016 37.0062C21.4065 37.4287 22.4954 37.6889 23.6315 37.7774C23.6632 39.2328 23.0166 40.2133 20.8454 39.5793ZM25.3412 39.9678C25.3759 39.1443 25.356 38.4188 25.3007 37.7516C26.1043 37.6838 26.8887 37.5577 27.6319 37.3218C27.6894 37.5606 27.7742 37.7907 27.8634 38.0141C26.5865 41.3723 25.1525 44.311 25.3412 39.9678ZM27.4491 43.0193C28.322 42.0336 28.9206 41.0191 29.3409 40.026C29.7884 40.3925 30.3001 40.6837 30.8574 40.8798C29.004 42.1088 27.4491 43.0193 27.4491 43.0193Z" fill="#E2081E"/>
</svg>
