<svg width="17" height="14" viewBox="0 0 17 14" fill="none" xmlns="http://www.w3.org/2000/svg">
<g clip-path="url(#clip0_113_1464)">
<path d="M5.43389 10.6114C5.22543 10.6084 5.01804 10.5811 4.81611 10.5296C4.49541 10.4486 4.18653 10.327 3.89708 10.1678C3.29573 9.84636 2.76422 9.41021 2.333 8.88452C2.10421 8.61385 1.92387 8.30613 1.79981 7.97495C1.79326 7.95654 1.78781 7.93769 1.78071 7.91494C2.24814 8.00713 2.73127 7.98313 3.18708 7.84511C2.47121 7.70688 1.82702 7.32344 1.36704 6.76178C0.898111 6.20181 0.648692 5.49259 0.664672 4.76463C1.1184 4.96167 1.60021 5.08755 2.09287 5.13782C1.99791 5.06469 1.90896 5.00087 1.82492 4.93099C1.23579 4.4632 0.839264 3.79776 0.709972 3.06002C0.594255 2.45674 0.677102 1.83246 0.946277 1.2795C0.994302 1.182 1.05542 1.09095 1.11763 0.988037L1.24316 1.1343C1.82607 1.82788 2.48502 2.45494 3.20782 3.00368C4.09199 3.67806 5.09861 4.17725 6.17278 4.47422C6.87711 4.66411 7.60354 4.76129 8.33336 4.76304C8.34809 4.76304 8.36288 4.76312 8.38253 4.75987C8.32446 4.5056 8.30498 4.2441 8.32468 3.98413C8.33833 3.33253 8.57136 2.70426 8.98661 2.19938C9.49174 1.55781 10.2299 1.13793 11.0429 1.02983C11.5032 0.960825 11.9729 0.98797 12.422 1.1097C12.8711 1.23143 13.2895 1.44515 13.6505 1.73679C13.745 1.80938 13.8312 1.89268 13.9234 1.96743C13.9444 1.98299 13.9705 1.9902 13.9965 1.98753C14.6736 1.8621 15.3239 1.62204 15.9191 1.27792L15.959 1.25728C15.9656 1.25551 15.9723 1.2545 15.9792 1.25411C15.7055 1.95126 15.2102 2.54086 14.5685 2.93333C15.1874 2.8645 15.7923 2.70326 16.3629 2.4554C16.3148 2.51986 16.2673 2.58484 16.2182 2.64821C15.8136 3.18881 15.3251 3.66236 14.7709 4.05078C14.7589 4.05898 14.7494 4.07014 14.7435 4.08331C14.7375 4.09649 14.7353 4.11103 14.7371 4.12537C14.7311 4.42437 14.7338 4.72134 14.7152 5.02197C14.6678 5.73168 14.5286 6.43218 14.301 7.10666C13.8394 8.52929 13.0256 9.81456 11.9341 10.8444C11.1365 11.5996 10.1989 12.1943 9.17325 12.5955C8.56312 12.835 7.92902 13.0094 7.28172 13.116C6.55917 13.2311 5.82684 13.275 5.09552 13.2467C4.6562 13.2326 4.21798 13.2064 3.78139 13.1528C2.89236 13.058 2.02548 12.8167 1.21641 12.4389C1.03414 12.3506 0.857317 12.251 0.677771 12.1562L0.682684 12.1411H0.739984C1.10072 12.1335 1.46255 12.1409 1.82273 12.1165C2.73439 12.0698 3.61959 11.7965 4.39698 11.3215C4.74134 11.1097 5.06824 10.8703 5.40277 10.6434C5.4055 10.6331 5.41206 10.6265 5.43389 10.6114Z" fill="#867D77"/>
</g>
<defs>
<clipPath id="clip0_113_1464">
<rect width="16.3721" height="13" fill="white" transform="translate(0.195435 0.5)"/>
</clipPath>
</defs>
</svg>
