<svg width="17" height="13" viewBox="0 0 17 13" fill="none" xmlns="http://www.w3.org/2000/svg">
<path d="M5.43392 10.1114C5.22546 10.1084 5.01808 10.0811 4.81614 10.0296C4.49544 9.94858 4.18656 9.82703 3.89711 9.66778C3.29576 9.34636 2.76425 8.91021 2.33303 8.38452C2.10424 8.11385 1.9239 7.80613 1.79984 7.47495C1.79329 7.45654 1.78784 7.43769 1.78074 7.41494C2.24817 7.50713 2.7313 7.48313 3.18711 7.34511C2.47124 7.20688 1.82705 6.82344 1.36707 6.26178C0.898141 5.70181 0.648723 4.99259 0.664702 4.26463C1.11843 4.46167 1.60024 4.58755 2.0929 4.63782C1.99795 4.56469 1.90899 4.50087 1.82495 4.43099C1.23582 3.9632 0.839294 3.29776 0.710003 2.56002C0.594286 1.95674 0.677133 1.33246 0.946308 0.779498C0.994333 0.681998 1.05545 0.590954 1.11766 0.488037L1.24319 0.634298C1.8261 1.32788 2.48505 1.95494 3.20785 2.50368C4.09202 3.17806 5.09864 3.67725 6.17281 3.97422C6.87714 4.16411 7.60358 4.26129 8.33339 4.26304C8.34813 4.26304 8.36291 4.26312 8.38256 4.25987C8.32449 4.0056 8.30501 3.7441 8.32471 3.48413C8.33836 2.83253 8.57139 2.20426 8.98664 1.69938C9.49177 1.05781 10.2299 0.637928 11.043 0.529826C11.5033 0.460825 11.973 0.48797 12.4221 0.609701C12.8711 0.73143 13.2895 0.94515 13.6506 1.23679C13.745 1.30938 13.8312 1.39268 13.9234 1.46743C13.9444 1.48299 13.9705 1.4902 13.9966 1.48753C14.6737 1.3621 15.324 1.12204 15.9191 0.777916L15.959 0.757284C15.9656 0.755513 15.9724 0.7545 15.9792 0.75411C15.7055 1.45126 15.2102 2.04086 14.5685 2.43333C15.1874 2.3645 15.7923 2.20326 16.3629 1.9554C16.3149 2.01986 16.2673 2.08484 16.2182 2.14821C15.8137 2.68881 15.3252 3.16236 14.771 3.55078C14.759 3.55898 14.7495 3.57014 14.7435 3.58331C14.7375 3.59649 14.7353 3.61103 14.7371 3.62537C14.7311 3.92437 14.7338 4.22134 14.7153 4.52197C14.6678 5.23168 14.5286 5.93218 14.301 6.60666C13.8394 8.02929 13.0256 9.31456 11.9342 10.3444C11.1365 11.0996 10.1989 11.6943 9.17328 12.0955C8.56315 12.335 7.92905 12.5094 7.28175 12.616C6.5592 12.7311 5.82687 12.775 5.09555 12.7467C4.65623 12.7326 4.21801 12.7064 3.78142 12.6528C2.89239 12.558 2.02551 12.3167 1.21644 11.9389C1.03417 11.8506 0.857347 11.751 0.677801 11.6562L0.682714 11.6411H0.740015C1.10075 11.6335 1.46258 11.6409 1.82276 11.6165C2.73442 11.5698 3.61962 11.2965 4.39701 10.8215C4.74137 10.6097 5.06827 10.3703 5.4028 10.1434C5.40553 10.1331 5.41209 10.1265 5.43392 10.1114Z" fill="#F8F5F3"/>
</svg>
