<svg width="17" height="16" viewBox="0 0 17 16" fill="none" xmlns="http://www.w3.org/2000/svg">
<path d="M13.0917 14.4132C12.505 14.5866 11.8117 14.6666 10.9984 14.6666H6.99836C6.18503 14.6666 5.4917 14.5866 4.90503 14.4132C5.0517 12.6799 6.8317 11.3132 8.99836 11.3132C11.165 11.3132 12.945 12.6799 13.0917 14.4132Z" stroke="#333333" stroke-width="0.6" stroke-linecap="round" stroke-linejoin="round"/>
<path d="M10.9983 1.33325H6.99827C3.66494 1.33325 2.3316 2.66659 2.3316 5.99992V9.99992C2.3316 12.5199 3.0916 13.8999 4.90494 14.4132C5.0516 12.6799 6.8316 11.3132 8.99827 11.3132C11.1649 11.3132 12.9449 12.6799 13.0916 14.4132C14.9049 13.8999 15.6649 12.5199 15.6649 9.99992V5.99992C15.6649 2.66659 14.3316 1.33325 10.9983 1.33325ZM8.99827 9.44657C7.67827 9.44657 6.6116 8.37326 6.6116 7.05326C6.6116 5.73326 7.67827 4.66659 8.99827 4.66659C10.3183 4.66659 11.3849 5.73326 11.3849 7.05326C11.3849 8.37326 10.3183 9.44657 8.99827 9.44657Z" stroke="#333333" stroke-width="0.6" stroke-linecap="round" stroke-linejoin="round"/>
</svg>
